<?xml version="1.0" encoding="utf-8"?>
<!-- Svg Vector Icons : http://www.onlinewebfonts.com/icon -->
<!DOCTYPE svg PUBLIC "-//W3C//DTD SVG 1.1//EN" "http://www.w3.org/Graphics/SVG/1.1/DTD/svg11.dtd">
<svg version="1.1" xmlns="http://www.w3.org/2000/svg" xmlns:xlink="http://www.w3.org/1999/xlink" x="0px" y="0px" viewBox="0 0 1000 1000" enable-background="new 0 0 1000 1000" xml:space="preserve">
<metadata> Svg Vector Icons : http://www.onlinewebfonts.com/icon </metadata>
<g><path d="M980.9,473.6L543.8,30.7c0,0-17.4-20.7-43.8-20.7c-28.7,0-43.8,20.7-43.8,20.7L19.1,473.6C7,485.9,7,505.7,19.1,518c12,12.2,29,2.9,41.1-9.3l29.3-29.7L501.2,69.5l438.6,442.5c12,8,30.6,16.5,41.1,5.9C993,505.7,993,485.8,980.9,473.6L980.9,473.6z M823.7,453.2c-13.4,0-24.4,11-24.4,24.6v0.1v0.1v413c0,27.4-21.9,49.5-48.9,49.5H641.8V701.6c0-51.9-41.5-94.1-92.8-94.1h-98c-51.3,0-92.8,42.1-92.8,94.1v238.9H249.5c-27,0-48.9-22.1-48.9-49.5V477.9c0-13.7-11-24.7-24.4-24.7c-13.5,0-24.4,11-24.5,24.7v418c0,52,41.6,94.1,92.8,94.1H407V706.6c0-27.4,21.9-49.5,48.9-49.5h88.3c27,0,48.9,22.2,48.9,49.5V990h162.4c51.3,0,92.8-42.1,92.8-94.1V477.8C848.1,464.2,837.2,453.2,823.7,453.2L823.7,453.2z"/></g>
</svg>